# xmcd
#
# Track frame offsets:
#	150
#	19798
#	34092
#	53392
#	68234
#	80047
#	98328
#	109721
#	124391
#	141283
#	157094
#	179408
#	196979
#	216853
#
# Disc length: 3017 seconds
#
# Revision: 0
# Processed by: cddbd v1.4PL0 Copyright (c) Steve Scherf et al.
# Submitted via: dBpowerAMP V4.0
#
DISCID=c10bc70e
DTITLE=Why - Ovni Tender, Ovni Trou?
DYEAR=1900
DGENRE=
TTITLE0=Solsburry Hill
TTITLE1=Mama's Got A Girlfriend
TTITLE2=Missionary Mind
TTITLE3=Thirty Nine
TTITLE4=Higfway To Hell
TTITLE5=Ants Marching
TTITLE6=Black Bird
TTITLE7=The South Is Gonna Do It Again
TTITLE8=The Riddle
TTITLE9=Pep-Talk
TTITLE10=Mull Of Kintyre
TTITLE11=One Track Mind
TTITLE12=Beating Around The Bush
TTITLE13=Waxie's Darggle
EXTD=
EXTT0=
EXTT1=
EXTT2=
EXTT3=
EXTT4=
EXTT5=
EXTT6=
EXTT7=
EXTT8=
EXTT9=
EXTT10=
EXTT11=
EXTT12=
EXTT13=
PLAYORDER=
